<?xml version="1.0" encoding="utf-8"?>
<!-- Generator: Adobe Illustrator 26.0.2, SVG Export Plug-In . SVG Version: 6.00 Build 0)  -->
<svg version="1.1" id="OBJECTS" xmlns="http://www.w3.org/2000/svg" xmlns:xlink="http://www.w3.org/1999/xlink" x="0px" y="0px"
	 viewBox="0 0 206.8 200.4" style="enable-background:new 0 0 206.8 200.4;" xml:space="preserve">
<style type="text/css">
	.st0{opacity:0.5;}
	.st1{fill:#B6E3F6;stroke:#B6E3F6;stroke-width:0.8;stroke-linecap:round;stroke-linejoin:round;stroke-miterlimit:10;}
	.st2{fill:#C5DA8B;stroke:#813E38;stroke-width:0.8;stroke-linecap:round;stroke-linejoin:round;stroke-miterlimit:10;}
	.st3{fill:#AABC68;}
	.st4{clip-path:url(#SVGID_00000000197359809938298730000010002835716087478437_);fill:#C5DA8B;}
	.st5{clip-path:url(#SVGID_00000116202871468538092260000011827523068173955485_);fill:#C5DA8B;}
	.st6{clip-path:url(#SVGID_00000114756192563955892300000006134199498804408724_);fill:#C5DA8B;}
	.st7{clip-path:url(#SVGID_00000119801880628109527060000002039366529560129925_);fill:#C5DA8B;}
	.st8{clip-path:url(#SVGID_00000050663828630352765160000012278960592137159096_);fill:#C5DA8B;}
	.st9{clip-path:url(#SVGID_00000070804566520091892720000003780929405164173228_);fill:#C5DA8B;}
	.st10{fill:none;stroke:#813E38;stroke-width:0.8;stroke-linecap:round;stroke-linejoin:round;stroke-miterlimit:10;}
	.st11{fill:#813E38;}
	.st12{fill:#FFFFFF;}
	.st13{fill:#C5DA8B;}
	.st14{fill:#FDBDBD;}
	.st15{fill:#AABC68;stroke:#813E38;stroke-width:0.8;stroke-linecap:round;stroke-linejoin:round;stroke-miterlimit:10;}
	.st16{fill:#FFA7AD;}
	.st17{clip-path:url(#SVGID_00000066485219295755238970000009978065251588489393_);fill:#FF666D;}
</style>
<g>
	<g>
		<g class="st0">
			<path class="st1" d="M0.4,105.9c0-52.2,45.9-94.5,102.6-94.5s102.6,42.3,102.6,94.5s-45.9,94.5-102.6,94.5l-4.1-57L80,198
				C34.4,188.4,0.4,150.8,0.4,105.9z"/>
		</g>
		<g>
			<g>
				<path class="st2" d="M1.6,94.9c0-52.2,45.9-94.5,102.6-94.5s102.6,42.3,102.6,94.5s-45.9,94.5-102.6,94.5l-4.1-57L81.3,187
					C35.7,177.5,1.6,139.8,1.6,94.9z"/>
			</g>
		</g>
	</g>
</g>
<g>
	<g>
		<g>
			<g>
				<path id="XMLID_46_" class="st3" d="M177.1,91.1c-1.8-8.9-7.9-11.1-13.4-11.1c0-0.8,0.1-1.5,0.1-2.3c0-12.3-3.7-23.7-10-33.2
					c-3.1-5.8-6.7-9.1-9.5-11.9c2.6-2.7,4-6.7,3.3-10.9c-0.9-5.1-5-9.2-10.1-10.1c-6.8-1.2-12.8,3.2-14.3,9.2
					c-6.1-2.1-12.6-3.2-19.4-3.2s-13.3,1.1-19.4,3.2c-1.6-6.1-7.5-10.4-14.3-9.2c-5.1,0.9-9.2,5-10.1,10.1
					c-0.7,4.2,0.7,8.1,3.3,10.9c-2.8,2.8-6.3,6.1-9.5,11.9c-6.3,9.5-10,20.9-10,33.2c0,0.8,0,1.5,0,2.3c-5.5,0-11.6,2.2-13.4,11.1
					c-2.7,13.6,10.3,24,15.9,27.8l-0.9,0.8c0,0-4.2,4-2.2,5.6c0.8,0.7,1.8,0.5,2.7,0.1c0.7-0.3,1.4,0.3,1.2,1
					c-0.3,1.3-0.3,2.7,0.9,3.3c1,0.5,1.9,0.1,2.7-0.5c0.6-0.5,1.4-0.1,1.4,0.6c0,1.4,0.5,2.7,1.9,2.9s2.1-0.7,2.6-1.9
					c0.2-0.7,1.2-0.9,1.6-0.2c0.5,0.8,1.2,1.4,2.3,1.2c0.5-0.1,0.9-0.9,1.2-2c0.3-1.1,0.5-2.1,0.5-3.2c0.1-2.5-0.5-5-1.6-7.3
					l-2.8-5.8c0,0,5.9,5.6,14.3,8.3c6,2.5,12.7,4.2,19.6,5.1c0.1,0,0.2,0,0.2,0c0.8,0.1,1.5,0.2,2.3,0.3c0.3,0,0.7,0.1,1.1,0.1
					c0.5,0.1,1.1,0.1,1.6,0.1c0.4,0,0.9,0.1,1.3,0.1c0.6,0,1.1,0.1,1.7,0.1c0.4,0,0.8,0,1.2,0.1c0.9,0,1.9,0.1,2.8,0.1l0,0
					c0.9,0,1.9,0,2.8-0.1c0.4,0,0.8,0,1.2-0.1c0.6,0,1.1-0.1,1.7-0.1c0.4,0,0.9-0.1,1.3-0.1c0.6,0,1.1-0.1,1.6-0.1
					c0.3,0,0.7-0.1,1-0.1c0.8-0.1,1.5-0.2,2.3-0.3c0.1,0,0.2,0,0.2,0c6.9-0.9,13.5-2.6,19.6-5.1c8.3-2.7,14.3-8.3,14.3-8.3l-2.8,5.8
					c-1.1,2.3-1.8,4.8-1.6,7.3c0.1,1.1,0.2,2.1,0.5,3.2c0.3,1.1,0.7,1.9,1.2,2c1.1,0.1,1.8-0.4,2.3-1.2c0.4-0.6,1.3-0.4,1.6,0.2
					c0.4,1.2,1.2,2.1,2.6,1.9c1.4-0.2,1.9-1.6,1.9-2.9c0-0.7,0.9-1.1,1.4-0.6c0.9,0.7,1.9,1.1,3,0.3c0.9-0.7,1.1-1.9,0.6-2.9
					c-0.3-0.8,0.5-1.5,1.2-1.1c0.9,0.4,1.8,0.6,2.7-0.1c2-1.6-2.1-5.6-2.1-5.6l-0.9-0.8C166.8,115.2,179.8,104.7,177.1,91.1z"/>
			</g>
			<g>
				<g>
					<defs>
						<path id="SVGID_1_" d="M177.1,91.1c-1.8-8.9-7.9-11.1-13.4-11.1c0-0.8,0.1-1.5,0.1-2.3c0-12.3-3.7-23.7-10-33.2
							c-3.1-5.8-6.7-9.1-9.5-11.9c2.6-2.7,4-6.7,3.3-10.9c-0.9-5.1-5-9.2-10.1-10.1c-6.8-1.2-12.8,3.2-14.3,9.2
							c-6.1-2.1-12.6-3.2-19.4-3.2s-13.3,1.1-19.4,3.2c-1.6-6.1-7.5-10.4-14.3-9.2c-5.1,0.9-9.2,5-10.1,10.1
							c-0.7,4.2,0.7,8.1,3.3,10.9c-2.8,2.8-6.3,6.1-9.5,11.9c-6.3,9.5-10,20.9-10,33.2c0,0.8,0,1.5,0,2.3c-5.5,0-11.6,2.2-13.4,11.1
							c-2.7,13.6,10.3,24,15.9,27.8l-0.9,0.8c0,0-4.2,4-2.2,5.6c0.8,0.7,1.8,0.5,2.7,0.1c0.7-0.3,1.4,0.3,1.2,1
							c-0.3,1.3-0.3,2.7,0.9,3.3c1,0.5,1.9,0.1,2.7-0.5c0.6-0.5,1.4-0.1,1.4,0.6c0,1.4,0.5,2.7,1.9,2.9s2.1-0.7,2.6-1.9
							c0.2-0.7,1.2-0.9,1.6-0.2c0.5,0.8,1.2,1.4,2.3,1.2c0.5-0.1,0.9-0.9,1.2-2c0.3-1.1,0.5-2.1,0.5-3.2c0.1-2.5-0.5-5-1.6-7.3
							l-2.8-5.8c0,0,5.9,5.6,14.3,8.3c6,2.5,12.7,4.2,19.6,5.1c0.1,0,0.2,0,0.2,0c0.8,0.1,1.5,0.2,2.3,0.3c0.3,0,0.7,0.1,1.1,0.1
							c0.5,0.1,1.1,0.1,1.6,0.1c0.4,0,0.9,0.1,1.3,0.1c0.6,0,1.1,0.1,1.7,0.1c0.4,0,0.8,0,1.2,0.1c0.9,0,1.9,0.1,2.8,0.1l0,0
							c0.9,0,1.9,0,2.8-0.1c0.4,0,0.8,0,1.2-0.1c0.6,0,1.1-0.1,1.7-0.1c0.4,0,0.9-0.1,1.3-0.1c0.6,0,1.1-0.1,1.6-0.1
							c0.3,0,0.7-0.1,1-0.1c0.8-0.1,1.5-0.2,2.3-0.3c0.1,0,0.2,0,0.2,0c6.9-0.9,13.5-2.6,19.6-5.1c8.3-2.7,14.3-8.3,14.3-8.3
							l-2.8,5.8c-1.1,2.3-1.8,4.8-1.6,7.3c0.1,1.1,0.2,2.1,0.5,3.2c0.3,1.1,0.7,1.9,1.2,2c1.1,0.1,1.8-0.4,2.3-1.2
							c0.4-0.6,1.3-0.4,1.6,0.2c0.4,1.2,1.2,2.1,2.6,1.9c1.4-0.2,1.9-1.6,1.9-2.9c0-0.7,0.9-1.1,1.4-0.6c0.9,0.7,1.9,1.1,3,0.3
							c0.9-0.7,1.1-1.9,0.6-2.9c-0.3-0.8,0.5-1.5,1.2-1.1c0.9,0.4,1.8,0.6,2.7-0.1c2-1.6-2.1-5.6-2.1-5.6l-0.9-0.8
							C166.8,115.2,179.8,104.7,177.1,91.1z"/>
					</defs>
					<clipPath id="SVGID_00000140719396790581665140000005869684412411375491_">
						<use xlink:href="#SVGID_1_"  style="overflow:visible;"/>
					</clipPath>
					
						<circle style="clip-path:url(#SVGID_00000140719396790581665140000005869684412411375491_);fill:#C5DA8B;" cx="46.3" cy="60.2" r="13.2"/>
				</g>
			</g>
			<g>
				<g>
					<defs>
						<path id="SVGID_00000063632988338468603800000005029745170682729391_" d="M177.1,91.1c-1.8-8.9-7.9-11.1-13.4-11.1
							c0-0.8,0.1-1.5,0.1-2.3c0-12.3-3.7-23.7-10-33.2c-3.1-5.8-6.7-9.1-9.5-11.9c2.6-2.7,4-6.7,3.3-10.9c-0.9-5.1-5-9.2-10.1-10.1
							c-6.8-1.2-12.8,3.2-14.3,9.2c-6.1-2.1-12.6-3.2-19.4-3.2s-13.3,1.1-19.4,3.2c-1.6-6.1-7.5-10.4-14.3-9.2
							c-5.1,0.9-9.2,5-10.1,10.1c-0.7,4.2,0.7,8.1,3.3,10.9c-2.8,2.8-6.3,6.1-9.5,11.9c-6.3,9.5-10,20.9-10,33.2c0,0.8,0,1.5,0,2.3
							c-5.5,0-11.6,2.2-13.4,11.1c-2.7,13.6,10.3,24,15.9,27.8l-0.9,0.8c0,0-4.2,4-2.2,5.6c0.8,0.7,1.8,0.5,2.7,0.1
							c0.7-0.3,1.4,0.3,1.2,1c-0.3,1.3-0.3,2.7,0.9,3.3c1,0.5,1.9,0.1,2.7-0.5c0.6-0.5,1.4-0.1,1.4,0.6c0,1.4,0.5,2.7,1.9,2.9
							s2.1-0.7,2.6-1.9c0.2-0.7,1.2-0.9,1.6-0.2c0.5,0.8,1.2,1.4,2.3,1.2c0.5-0.1,0.9-0.9,1.2-2c0.3-1.1,0.5-2.1,0.5-3.2
							c0.1-2.5-0.5-5-1.6-7.3l-2.8-5.8c0,0,5.9,5.6,14.3,8.3c6,2.5,12.7,4.2,19.6,5.1c0.1,0,0.2,0,0.2,0c0.8,0.1,1.5,0.2,2.3,0.3
							c0.3,0,0.7,0.1,1.1,0.1c0.5,0.1,1.1,0.1,1.6,0.1c0.4,0,0.9,0.1,1.3,0.1c0.6,0,1.1,0.1,1.7,0.1c0.4,0,0.8,0,1.2,0.1
							c0.9,0,1.9,0.1,2.8,0.1l0,0c0.9,0,1.9,0,2.8-0.1c0.4,0,0.8,0,1.2-0.1c0.6,0,1.1-0.1,1.7-0.1c0.4,0,0.9-0.1,1.3-0.1
							c0.6,0,1.1-0.1,1.6-0.1c0.3,0,0.7-0.1,1-0.1c0.8-0.1,1.5-0.2,2.3-0.3c0.1,0,0.2,0,0.2,0c6.9-0.9,13.5-2.6,19.6-5.1
							c8.3-2.7,14.3-8.3,14.3-8.3l-2.8,5.8c-1.1,2.3-1.8,4.8-1.6,7.3c0.1,1.1,0.2,2.1,0.5,3.2c0.3,1.1,0.7,1.9,1.2,2
							c1.1,0.1,1.8-0.4,2.3-1.2c0.4-0.6,1.3-0.4,1.6,0.2c0.4,1.2,1.2,2.1,2.6,1.9c1.4-0.2,1.9-1.6,1.9-2.9c0-0.7,0.9-1.1,1.4-0.6
							c0.9,0.7,1.9,1.1,3,0.3c0.9-0.7,1.1-1.9,0.6-2.9c-0.3-0.8,0.5-1.5,1.2-1.1c0.9,0.4,1.8,0.6,2.7-0.1c2-1.6-2.1-5.6-2.1-5.6
							l-0.9-0.8C166.8,115.2,179.8,104.7,177.1,91.1z"/>
					</defs>
					<clipPath id="SVGID_00000109019810387235736200000014431420693411709610_">
						<use xlink:href="#SVGID_00000063632988338468603800000005029745170682729391_"  style="overflow:visible;"/>
					</clipPath>
					
						<circle style="clip-path:url(#SVGID_00000109019810387235736200000014431420693411709610_);fill:#C5DA8B;" cx="103.7" cy="11.5" r="13.2"/>
				</g>
			</g>
			<g>
				<g>
					<defs>
						<path id="SVGID_00000037692519468577935760000006310381669672744122_" d="M177.9,90.5c-2-8.9-8.3-10.8-13.8-10.7
							c0-0.8,0-1.5,0-2.3c-0.4-12.3-4.4-23.5-11-32.8c-3.3-5.8-6.9-8.9-9.9-11.6c2.6-2.8,3.8-6.8,2.9-10.9c-1.1-5.1-5.2-9-10.4-9.7
							c-6.8-1-12.6,3.5-14.1,9.7c-6.1-1.9-12.7-2.8-19.4-2.6C95.5,19.7,88.9,21,83,23.3c-1.7-6.1-7.9-10.2-14.6-8.8
							c-5.1,1.1-9,5.2-9.7,10.3c-0.6,4.2,0.9,8.1,3.7,10.7c-2.8,2.8-6.2,6.3-9.1,12.1c-6.1,9.7-9.4,21.1-9,33.4c0,0.8,0,1.5,0.1,2.3
							C38.8,83.7,32.7,86,31.1,95c-2.3,13.6,11.1,23.7,16.7,27.3l-0.9,0.8c0,0-4,4.2-2,5.7c0.8,0.6,1.8,0.5,2.7,0
							c0.7-0.3,1.4,0.2,1.3,1c-0.3,1.3-0.2,2.7,1.1,3.3c1,0.5,1.9,0.1,2.7-0.5c0.6-0.5,1.4-0.1,1.5,0.6c0.1,1.3,0.5,2.7,2,2.9
							c1.4,0.2,2.1-0.8,2.5-1.9c0.2-0.7,1.2-0.9,1.6-0.3c0.5,0.8,1.3,1.3,2.3,1.2c0.5-0.1,0.9-0.9,1.2-2c0.3-1.1,0.4-2.1,0.5-3.2
							c0.1-2.5-0.7-5-1.9-7.3l-3-5.8c0,0,6.1,5.4,14.5,7.9c6.1,2.3,12.9,3.8,19.8,4.6c0.1,0,0.2,0,0.3,0c0.8,0.1,1.5,0.2,2.3,0.2
							c0.4,0,0.7,0.1,1.1,0.1c0.5,0,1.1,0.1,1.6,0.1c0.4,0,0.9,0.1,1.3,0.1c0.6,0,1.1,0,1.7,0.1c0.4,0,0.8,0,1.2,0c1,0,1.9,0,2.9,0
							l0,0c0.9,0,1.9,0,2.8-0.1c0.4,0,0.8,0,1.2-0.1c0.6,0,1.1-0.1,1.7-0.1c0.4,0,0.9-0.1,1.3-0.1c0.5,0,1.1-0.1,1.6-0.2
							c0.3,0,0.7-0.1,1-0.1c0.8-0.1,1.5-0.2,2.3-0.3c0.1,0,0.2,0,0.2,0c6.9-1.1,13.5-3,19.4-5.7c8.3-3,14-8.7,14-8.7l-2.6,5.9
							c-1.1,2.3-1.6,4.8-1.4,7.3c0.1,1.1,0.3,2.1,0.6,3.2c0.3,1.1,0.7,1.9,1.2,2c1.1,0.1,1.8-0.5,2.3-1.3c0.4-0.6,1.3-0.5,1.6,0.2
							c0.4,1.2,1.2,2.1,2.6,1.9c1.4-0.3,1.9-1.6,1.9-2.9c0-0.7,0.9-1.1,1.4-0.7c0.9,0.7,1.9,1.1,3,0.2c0.9-0.7,1-1.9,0.6-3
							c-0.3-0.8,0.5-1.5,1.2-1.2c0.9,0.4,1.8,0.6,2.7-0.1c2-1.6-2.3-5.6-2.3-5.6l-1.4-1C168.4,114.8,181.1,103.9,177.9,90.5z"/>
					</defs>
					<clipPath id="SVGID_00000156572108826238874750000003590647646287044231_">
						<use xlink:href="#SVGID_00000037692519468577935760000006310381669672744122_"  style="overflow:visible;"/>
					</clipPath>
					
						<ellipse style="clip-path:url(#SVGID_00000156572108826238874750000003590647646287044231_);fill:#C5DA8B;" cx="155.5" cy="62.9" rx="13.2" ry="13.2"/>
				</g>
			</g>
			<g>
				<g>
					<defs>
						<path id="SVGID_00000071520876077086616870000013246094869646060219_" d="M177.1,91.1c-1.8-8.9-7.9-11.1-13.4-11.1
							c0-0.8,0.1-1.5,0.1-2.3c0-12.3-3.7-23.7-10-33.2c-3.1-5.8-6.7-9.1-9.5-11.9c2.6-2.7,4-6.7,3.3-10.9c-0.9-5.1-5-9.2-10.1-10.1
							c-6.8-1.2-12.8,3.2-14.3,9.2c-6.1-2.1-12.6-3.2-19.4-3.2s-13.3,1.1-19.4,3.2c-1.6-6.1-7.5-10.4-14.3-9.2
							c-5.1,0.9-9.2,5-10.1,10.1c-0.7,4.2,0.7,8.1,3.3,10.9c-2.8,2.8-6.3,6.1-9.5,11.9c-6.3,9.5-10,20.9-10,33.2c0,0.8,0,1.5,0,2.3
							c-5.5,0-11.6,2.2-13.4,11.1c-2.7,13.6,10.3,24,15.9,27.8l-0.9,0.8c0,0-4.2,4-2.2,5.6c0.8,0.7,1.8,0.5,2.7,0.1
							c0.7-0.3,1.4,0.3,1.2,1c-0.3,1.3-0.3,2.7,0.9,3.3c1,0.5,1.9,0.1,2.7-0.5c0.6-0.5,1.4-0.1,1.4,0.6c0,1.4,0.5,2.7,1.9,2.9
							s2.1-0.7,2.6-1.9c0.2-0.7,1.2-0.9,1.6-0.2c0.5,0.8,1.2,1.4,2.3,1.2c0.5-0.1,0.9-0.9,1.2-2c0.3-1.1,0.5-2.1,0.5-3.2
							c0.1-2.5-0.5-5-1.6-7.3l-2.8-5.8c0,0,5.9,5.6,14.3,8.3c6,2.5,12.7,4.2,19.6,5.1c0.1,0,0.2,0,0.2,0c0.8,0.1,1.5,0.2,2.3,0.3
							c0.3,0,0.7,0.1,1.1,0.1c0.5,0.1,1.1,0.1,1.6,0.1c0.4,0,0.9,0.1,1.3,0.1c0.6,0,1.1,0.1,1.7,0.1c0.4,0,0.8,0,1.2,0.1
							c0.9,0,1.9,0.1,2.8,0.1l0,0c0.9,0,1.9,0,2.8-0.1c0.4,0,0.8,0,1.2-0.1c0.6,0,1.1-0.1,1.7-0.1c0.4,0,0.9-0.1,1.3-0.1
							c0.6,0,1.1-0.1,1.6-0.1c0.3,0,0.7-0.1,1-0.1c0.8-0.1,1.5-0.2,2.3-0.3c0.1,0,0.2,0,0.2,0c6.9-0.9,13.5-2.6,19.6-5.1
							c8.3-2.7,14.3-8.3,14.3-8.3l-2.8,5.8c-1.1,2.3-1.8,4.8-1.6,7.3c0.1,1.1,0.2,2.1,0.5,3.2c0.3,1.1,0.7,1.9,1.2,2
							c1.1,0.1,1.8-0.4,2.3-1.2c0.4-0.6,1.3-0.4,1.6,0.2c0.4,1.2,1.2,2.1,2.6,1.9c1.4-0.2,1.9-1.6,1.9-2.9c0-0.7,0.9-1.1,1.4-0.6
							c0.9,0.7,1.9,1.1,3,0.3c0.9-0.7,1.1-1.9,0.6-2.9c-0.3-0.8,0.5-1.5,1.2-1.1c0.9,0.4,1.8,0.6,2.7-0.1c2-1.6-2.1-5.6-2.1-5.6
							l-0.9-0.8C166.8,115.2,179.8,104.7,177.1,91.1z"/>
					</defs>
					<clipPath id="SVGID_00000137819980450490337400000000616618237473573303_">
						<use xlink:href="#SVGID_00000071520876077086616870000013246094869646060219_"  style="overflow:visible;"/>
					</clipPath>
					<path style="clip-path:url(#SVGID_00000137819980450490337400000000616618237473573303_);fill:#C5DA8B;" d="M61.8,51
						c0,2.7,2.2,4.9,4.9,4.9s4.9-2.2,4.9-4.9s-2.2-4.9-4.9-4.9S61.8,48.3,61.8,51z"/>
				</g>
			</g>
			<g>
				<g>
					<defs>
						<path id="SVGID_00000045603570427985025930000003965769828019711667_" d="M177.1,91.1c-1.8-8.9-7.9-11.1-13.4-11.1
							c0-0.8,0.1-1.5,0.1-2.3c0-12.3-3.7-23.7-10-33.2c-3.1-5.8-6.7-9.1-9.5-11.9c2.6-2.7,4-6.7,3.3-10.9c-0.9-5.1-5-9.2-10.1-10.1
							c-6.8-1.2-12.8,3.2-14.3,9.2c-6.1-2.1-12.6-3.2-19.4-3.2s-13.3,1.1-19.4,3.2c-1.6-6.1-7.5-10.4-14.3-9.2
							c-5.1,0.9-9.2,5-10.1,10.1c-0.7,4.2,0.7,8.1,3.3,10.9c-2.8,2.8-6.3,6.1-9.5,11.9c-6.3,9.5-10,20.9-10,33.2c0,0.8,0,1.5,0,2.3
							c-5.5,0-11.6,2.2-13.4,11.1c-2.7,13.6,10.3,24,15.9,27.8l-0.9,0.8c0,0-4.2,4-2.2,5.6c0.8,0.7,1.8,0.5,2.7,0.1
							c0.7-0.3,1.4,0.3,1.2,1c-0.3,1.3-0.3,2.7,0.9,3.3c1,0.5,1.9,0.1,2.7-0.5c0.6-0.5,1.4-0.1,1.4,0.6c0,1.4,0.5,2.7,1.9,2.9
							s2.1-0.7,2.6-1.9c0.2-0.7,1.2-0.9,1.6-0.2c0.5,0.8,1.2,1.4,2.3,1.2c0.5-0.1,0.9-0.9,1.2-2c0.3-1.1,0.5-2.1,0.5-3.2
							c0.1-2.5-0.5-5-1.6-7.3l-2.8-5.8c0,0,5.9,5.6,14.3,8.3c6,2.5,12.7,4.2,19.6,5.1c0.1,0,0.2,0,0.2,0c0.8,0.1,1.5,0.2,2.3,0.3
							c0.3,0,0.7,0.1,1.1,0.1c0.5,0.1,1.1,0.1,1.6,0.1c0.4,0,0.9,0.1,1.3,0.1c0.6,0,1.1,0.1,1.7,0.1c0.4,0,0.8,0,1.2,0.1
							c0.9,0,1.9,0.1,2.8,0.1l0,0c0.9,0,1.9,0,2.8-0.1c0.4,0,0.8,0,1.2-0.1c0.6,0,1.1-0.1,1.7-0.1c0.4,0,0.9-0.1,1.3-0.1
							c0.6,0,1.1-0.1,1.6-0.1c0.3,0,0.7-0.1,1-0.1c0.8-0.1,1.5-0.2,2.3-0.3c0.1,0,0.2,0,0.2,0c6.9-0.9,13.5-2.6,19.6-5.1
							c8.3-2.7,14.3-8.3,14.3-8.3l-2.8,5.8c-1.1,2.3-1.8,4.8-1.6,7.3c0.1,1.1,0.2,2.1,0.5,3.2c0.3,1.1,0.7,1.9,1.2,2
							c1.1,0.1,1.8-0.4,2.3-1.2c0.4-0.6,1.3-0.4,1.6,0.2c0.4,1.2,1.2,2.1,2.6,1.9c1.4-0.2,1.9-1.6,1.9-2.9c0-0.7,0.9-1.1,1.4-0.6
							c0.9,0.7,1.9,1.1,3,0.3c0.9-0.7,1.1-1.9,0.6-2.9c-0.3-0.8,0.5-1.5,1.2-1.1c0.9,0.4,1.8,0.6,2.7-0.1c2-1.6-2.1-5.6-2.1-5.6
							l-0.9-0.8C166.8,115.2,179.8,104.7,177.1,91.1z"/>
					</defs>
					<clipPath id="SVGID_00000155866913467784804670000013692303739181294227_">
						<use xlink:href="#SVGID_00000045603570427985025930000003965769828019711667_"  style="overflow:visible;"/>
					</clipPath>
					<path style="clip-path:url(#SVGID_00000155866913467784804670000013692303739181294227_);fill:#C5DA8B;" d="M127.9,61.2
						c0,2.7,2.2,4.9,4.9,4.9s4.9-2.2,4.9-4.9s-2.2-4.9-4.9-4.9S127.9,58.5,127.9,61.2z"/>
				</g>
			</g>
			<g>
				<g>
					<defs>
						<path id="SVGID_00000011726413564421476670000001249499382635295389_" d="M177.1,91.1c-1.8-8.9-7.9-11.1-13.4-11.1
							c0-0.8,0.1-1.5,0.1-2.3c0-12.3-3.7-23.7-10-33.2c-3.1-5.8-6.7-9.1-9.5-11.9c2.6-2.7,4-6.7,3.3-10.9c-0.9-5.1-5-9.2-10.1-10.1
							c-6.8-1.2-12.8,3.2-14.3,9.2c-6.1-2.1-12.6-3.2-19.4-3.2s-13.3,1.1-19.4,3.2c-1.6-6.1-7.5-10.4-14.3-9.2
							c-5.1,0.9-9.2,5-10.1,10.1c-0.7,4.2,0.7,8.1,3.3,10.9c-2.8,2.8-6.3,6.1-9.5,11.9c-6.3,9.5-10,20.9-10,33.2c0,0.8,0,1.5,0,2.3
							c-5.5,0-11.6,2.2-13.4,11.1c-2.7,13.6,10.3,24,15.9,27.8l-0.9,0.8c0,0-4.2,4-2.2,5.6c0.8,0.7,1.8,0.5,2.7,0.1
							c0.7-0.3,1.4,0.3,1.2,1c-0.3,1.3-0.3,2.7,0.9,3.3c1,0.5,1.9,0.1,2.7-0.5c0.6-0.5,1.4-0.1,1.4,0.6c0,1.4,0.5,2.7,1.9,2.9
							s2.1-0.7,2.6-1.9c0.2-0.7,1.2-0.9,1.6-0.2c0.5,0.8,1.2,1.4,2.3,1.2c0.5-0.1,0.9-0.9,1.2-2c0.3-1.1,0.5-2.1,0.5-3.2
							c0.1-2.5-0.5-5-1.6-7.3l-2.8-5.8c0,0,5.9,5.6,14.3,8.3c6,2.5,12.7,4.2,19.6,5.1c0.1,0,0.2,0,0.2,0c0.8,0.1,1.5,0.2,2.3,0.3
							c0.3,0,0.7,0.1,1.1,0.1c0.5,0.1,1.1,0.1,1.6,0.1c0.4,0,0.9,0.1,1.3,0.1c0.6,0,1.1,0.1,1.7,0.1c0.4,0,0.8,0,1.2,0.1
							c0.9,0,1.9,0.1,2.8,0.1l0,0c0.9,0,1.9,0,2.8-0.1c0.4,0,0.8,0,1.2-0.1c0.6,0,1.1-0.1,1.7-0.1c0.4,0,0.9-0.1,1.3-0.1
							c0.6,0,1.1-0.1,1.6-0.1c0.3,0,0.7-0.1,1-0.1c0.8-0.1,1.5-0.2,2.3-0.3c0.1,0,0.2,0,0.2,0c6.9-0.9,13.5-2.6,19.6-5.1
							c8.3-2.7,14.3-8.3,14.3-8.3l-2.8,5.8c-1.1,2.3-1.8,4.8-1.6,7.3c0.1,1.1,0.2,2.1,0.5,3.2c0.3,1.1,0.7,1.9,1.2,2
							c1.1,0.1,1.8-0.4,2.3-1.2c0.4-0.6,1.3-0.4,1.6,0.2c0.4,1.2,1.2,2.1,2.6,1.9c1.4-0.2,1.9-1.6,1.9-2.9c0-0.7,0.9-1.1,1.4-0.6
							c0.9,0.7,1.9,1.1,3,0.3c0.9-0.7,1.1-1.9,0.6-2.9c-0.3-0.8,0.5-1.5,1.2-1.1c0.9,0.4,1.8,0.6,2.7-0.1c2-1.6-2.1-5.6-2.1-5.6
							l-0.9-0.8C166.8,115.2,179.8,104.7,177.1,91.1z"/>
					</defs>
					<clipPath id="SVGID_00000165930774690446963930000000428167269394611074_">
						<use xlink:href="#SVGID_00000011726413564421476670000001249499382635295389_"  style="overflow:visible;"/>
					</clipPath>
					<path style="clip-path:url(#SVGID_00000165930774690446963930000000428167269394611074_);fill:#C5DA8B;" d="M133.7,48
						c0,2.7,2.2,4.9,4.9,4.9s4.9-2.2,4.9-4.9s-2.2-4.9-4.9-4.9C135.9,43.1,133.7,45.3,133.7,48z"/>
				</g>
			</g>
			<g>
				<path id="XMLID_00000023281019308766927750000008475463881756454821_" class="st10" d="M177.1,91.1c-1.8-8.9-7.9-11.1-13.4-11.1
					c0-0.8,0.1-1.5,0.1-2.3c0-12.3-3.7-23.7-10-33.2c-3.1-5.8-6.7-9.1-9.5-11.9c2.6-2.7,4-6.7,3.3-10.9c-0.9-5.1-5-9.2-10.1-10.1
					c-6.8-1.2-12.8,3.2-14.3,9.2c-6.1-2.1-12.6-3.2-19.4-3.2s-13.3,1.1-19.4,3.2c-1.6-6.1-7.5-10.4-14.3-9.2
					c-5.1,0.9-9.2,5-10.1,10.1c-0.7,4.2,0.7,8.1,3.3,10.9c-2.8,2.8-6.3,6.1-9.5,11.9c-6.3,9.5-10,20.9-10,33.2c0,0.8,0,1.5,0,2.3
					c-5.5,0-11.6,2.2-13.4,11.1c-2.7,13.6,10.3,24,15.9,27.8l-0.9,0.8c0,0-4.2,4-2.2,5.6c0.8,0.7,1.8,0.5,2.7,0.1
					c0.7-0.3,1.4,0.3,1.2,1c-0.3,1.3-0.3,2.7,0.9,3.3c1,0.5,1.9,0.1,2.7-0.5c0.6-0.5,1.4-0.1,1.4,0.6c0,1.4,0.5,2.7,1.9,2.9
					s2.1-0.7,2.6-1.9c0.2-0.7,1.2-0.9,1.6-0.2c0.5,0.8,1.2,1.4,2.3,1.2c0.5-0.1,0.9-0.9,1.2-2c0.3-1.1,0.5-2.1,0.5-3.2
					c0.1-2.5-0.5-5-1.6-7.3l-2.8-5.8c0,0,5.9,5.6,14.3,8.3c6,2.5,12.7,4.2,19.6,5.1c0.1,0,0.2,0,0.2,0c0.8,0.1,1.5,0.2,2.3,0.3
					c0.3,0,0.7,0.1,1.1,0.1c0.5,0.1,1.1,0.1,1.6,0.1c0.4,0,0.9,0.1,1.3,0.1c0.6,0,1.1,0.1,1.7,0.1c0.4,0,0.8,0,1.2,0.1
					c0.9,0,1.9,0.1,2.8,0.1l0,0c0.9,0,1.9,0,2.8-0.1c0.4,0,0.8,0,1.2-0.1c0.6,0,1.1-0.1,1.7-0.1c0.4,0,0.9-0.1,1.3-0.1
					c0.6,0,1.1-0.1,1.6-0.1c0.3,0,0.7-0.1,1-0.1c0.8-0.1,1.5-0.2,2.3-0.3c0.1,0,0.2,0,0.2,0c6.9-0.9,13.5-2.6,19.6-5.1
					c8.3-2.7,14.3-8.3,14.3-8.3l-2.8,5.8c-1.1,2.3-1.8,4.8-1.6,7.3c0.1,1.1,0.2,2.1,0.5,3.2c0.3,1.1,0.7,1.9,1.2,2
					c1.1,0.1,1.8-0.4,2.3-1.2c0.4-0.6,1.3-0.4,1.6,0.2c0.4,1.2,1.2,2.1,2.6,1.9c1.4-0.2,1.9-1.6,1.9-2.9c0-0.7,0.9-1.1,1.4-0.6
					c0.9,0.7,1.9,1.1,3,0.3c0.9-0.7,1.1-1.9,0.6-2.9c-0.3-0.8,0.5-1.5,1.2-1.1c0.9,0.4,1.8,0.6,2.7-0.1c2-1.6-2.1-5.6-2.1-5.6
					l-0.9-0.8C166.8,115.2,179.8,104.7,177.1,91.1z"/>
			</g>
		</g>
		<path class="st11" d="M65.8,24.1c0,3.5,2.9,6.4,6.4,6.4s6.4-2.9,6.4-6.4s-2.9-6.4-6.4-6.4C68.7,17.7,65.8,20.5,65.8,24.1z"/>
		<path class="st12" d="M68.2,22.5c0,1.1,0.9,2.1,2.1,2.1s2.1-0.9,2.1-2.1c0-1.1-0.9-2.1-2.1-2.1C69.2,20.4,68.2,21.4,68.2,22.5z"/>
		<path class="st11" d="M128.9,24.1c0,3.5,2.9,6.4,6.4,6.4s6.4-2.9,6.4-6.4s-2.9-6.4-6.4-6.4S128.9,20.5,128.9,24.1z"/>
		<path class="st12" d="M131.3,22.5c0,1.1,0.9,2.1,2.1,2.1s2.1-0.9,2.1-2.1c0-1.1-0.9-2.1-2.1-2.1C132.2,20.4,131.3,21.4,131.3,22.5
			z"/>
		<path class="st13" d="M62,93c0,16.8,18.7,30.3,41.7,30.3s41.7-13.6,41.7-30.3s-18.7-20.8-41.7-20.8S62,76.3,62,93z"/>
		<g>
			<path class="st14" d="M68,35.3c0,1.8,2.9,3.4,6.6,3.4s6.6-1.5,6.6-3.4c0-1.8-2.9-3.4-6.6-3.4S68,33.5,68,35.3z"/>
			<path class="st14" d="M126.2,35.3c0,1.8,2.9,3.4,6.6,3.4s6.6-1.5,6.6-3.4c0-1.8-2.9-3.4-6.6-3.4S126.2,33.5,126.2,35.3z"/>
		</g>
		<path class="st15" d="M51.5,85.7l19.6,46.5l-0.2,0.2c0,0-3.5,3.4-1.8,4.8c0.7,0.6,1.5,0.4,2.3,0.1c0.6-0.3,1.2,0.2,1.1,0.8
			c-0.2,1.1-0.2,2.3,0.8,2.8c0.8,0.4,1.7,0.1,2.3-0.4c0.5-0.4,1.2-0.1,1.2,0.6c0,1.1,0.4,2.3,1.6,2.5s1.8-0.6,2.2-1.6
			c0.2-0.6,1-0.7,1.3-0.2c0.4,0.6,1.1,1.1,1.9,1c0.4-0.1,0.8-0.8,1-1.7c0.5-1.6,0.6-3.3,0.3-5l0,0l-6.8-64.5"/>
		<path class="st15" d="M155.5,85.7l-19.6,46.5l0.2,0.2c0,0,3.5,3.4,1.8,4.8c-0.7,0.6-1.5,0.4-2.3,0.1c-0.6-0.3-1.2,0.2-1.1,0.8
			c0.2,1.1,0.2,2.3-0.8,2.8c-0.9,0.4-1.6,0.1-2.3-0.4c-0.5-0.4-1.2-0.1-1.2,0.6c0,1.1-0.4,2.3-1.6,2.5c-1.2,0.2-1.8-0.6-2.2-1.6
			c-0.2-0.6-1-0.7-1.3-0.2c-0.4,0.6-1.1,1.1-1.9,1c-0.4-0.1-0.8-0.8-1-1.7c-0.5-1.6-0.6-3.3-0.4-5l0,0l6.9-64.7"/>
		<path class="st10" d="M42.8,91.3c0,0,2.1,11.5,14.9,22.3"/>
		<path class="st10" d="M164.7,91.3c0,0-2.1,11.5-14.9,22.3"/>
		<path class="st11" d="M99.4,22.5c0,0.4,0.3,0.7,0.7,0.7s0.7-0.3,0.7-0.7s-0.3-0.7-0.7-0.7C99.8,21.8,99.4,22.1,99.4,22.5z"/>
		<path class="st11" d="M106.6,22.5c0,0.4,0.3,0.7,0.7,0.7s0.7-0.3,0.7-0.7s-0.3-0.7-0.7-0.7S106.6,22.1,106.6,22.5z"/>
		<g>
			<g>
				<path id="XMLID_56_" class="st16" d="M93.8,36.8c0,5.5,4.5,7.2,10,7.2s10-1.7,10-7.2s-4.5-10-10-10S93.8,31.3,93.8,36.8z"/>
			</g>
			<g>
				<g>
					<defs>
						<path id="SVGID_00000080895721048739265880000001776059833068199335_" d="M93.8,36.8c0,5.5,4.5,7.2,10,7.2s10-1.7,10-7.2
							s-4.5-10-10-10S93.8,31.3,93.8,36.8z"/>
					</defs>
					<clipPath id="SVGID_00000082348042316350541420000003856784798781780864_">
						<use xlink:href="#SVGID_00000080895721048739265880000001776059833068199335_"  style="overflow:visible;"/>
					</clipPath>
					<path style="clip-path:url(#SVGID_00000082348042316350541420000003856784798781780864_);fill:#FF666D;" d="M90.3,38.7
						c0,0,12.1-5.3,27.7,0c0,5.9,0,7.1,0,7.1H90.3V38.7z"/>
				</g>
			</g>
			<g>
				<path id="XMLID_00000156556326920880932230000017640232032924570255_" class="st10" d="M93.8,36.8c0,5.5,4.5,7.2,10,7.2
					s10-1.7,10-7.2s-4.5-10-10-10S93.8,31.3,93.8,36.8z"/>
			</g>
		</g>
	</g>
</g>
</svg>
